<svg xmlns="http://www.w3.org/2000/svg" xmlns:xlink="http://www.w3.org/1999/xlink" width="500" zoomAndPan="magnify" viewBox="0 0 375 374.999991" height="500" preserveAspectRatio="xMidYMid meet" version="1.0"><defs><g/><clipPath id="0061747ba8"><path d="M 89.636719 155.195312 L 116.246094 155.195312 L 116.246094 215.628906 L 89.636719 215.628906 Z M 89.636719 155.195312 " clip-rule="nonzero"/></clipPath><clipPath id="4e6d138f0a"><path d="M 109 156 L 133.886719 156 L 133.886719 215.945312 L 109 215.945312 Z M 109 156 " clip-rule="nonzero"/></clipPath></defs><g clip-path="url(#0061747ba8)"><path fill="#f2e4c5" d="M 113.558594 211.625 C 113.398438 212.691406 113.027344 213.714844 112.488281 214.644531 C 112.484375 214.652344 112.480469 214.65625 112.476562 214.664062 C 112.085938 215.335938 111.371094 215.71875 110.53125 215.613281 C 99.523438 214.207031 89.636719 200.734375 89.636719 184.964844 C 89.636719 168.253906 98.886719 156.011719 112.519531 155.210938 C 113.59375 155.148438 114.652344 155.320312 115.6875 155.53125 C 116.191406 155.632812 116.398438 156.1875 116.070312 156.554688 C 109.027344 164.507812 104.992188 171.554688 105.726562 181.347656 C 105.988281 184.855469 107.238281 189.207031 108.796875 193.359375 C 110.238281 197.265625 114.695312 204.121094 113.558594 211.625 " fill-opacity="1" fill-rule="nonzero"/></g><g clip-path="url(#4e6d138f0a)"><path fill="#f2e4c5" d="M 134.132812 185.476562 C 134.132812 199.816406 127.011719 211.828125 117.441406 214.949219 C 116.210938 215.351562 115.019531 214.246094 115.308594 212.980469 C 115.808594 210.796875 116.125 208.554688 116.046875 206.292969 C 115.632812 194.5 110.207031 190.761719 109.582031 183.011719 C 109.003906 175.800781 109.835938 169.054688 115.5625 160.039062 C 116.1875 159.058594 116.917969 158.148438 117.746094 157.332031 C 118.125 156.75 118.9375 156.550781 119.59375 156.867188 C 128.058594 160.96875 134.132812 172.234375 134.132812 185.476562 " fill-opacity="1" fill-rule="nonzero"/></g><g fill="#f2e4c5" fill-opacity="1"><g transform="translate(142.668422, 183.59242)"><g><path d="M 0.609375 -27.609375 L 0.609375 -27.859375 L 11.34375 -27.859375 C 13.769531 -27.859375 15.878906 -27.335938 17.671875 -26.296875 C 19.460938 -25.253906 20.84375 -23.703125 21.8125 -21.640625 C 22.789062 -19.578125 23.28125 -17.003906 23.28125 -13.921875 C 23.28125 -10.859375 22.789062 -8.289062 21.8125 -6.21875 C 20.84375 -4.15625 19.460938 -2.601562 17.671875 -1.5625 C 15.878906 -0.519531 13.769531 0 11.34375 0 L 0.609375 0 L 0.609375 -0.25 C 1.179688 -0.394531 1.585938 -0.734375 1.828125 -1.265625 C 2.078125 -1.804688 2.203125 -2.523438 2.203125 -3.421875 L 2.203125 -24.4375 C 2.203125 -25.351562 2.078125 -26.070312 1.828125 -26.59375 C 1.585938 -27.125 1.179688 -27.460938 0.609375 -27.609375 Z M 10.015625 -27.203125 L 10.015625 -0.65625 C 10.960938 -0.675781 11.75 -0.929688 12.375 -1.421875 C 13 -1.921875 13.5 -2.597656 13.875 -3.453125 C 14.25 -4.304688 14.53125 -5.289062 14.71875 -6.40625 C 14.90625 -7.53125 15.03125 -8.726562 15.09375 -10 C 15.164062 -11.269531 15.203125 -12.570312 15.203125 -13.90625 C 15.203125 -15.238281 15.164062 -16.546875 15.09375 -17.828125 C 15.03125 -19.109375 14.90625 -20.304688 14.71875 -21.421875 C 14.53125 -22.535156 14.25 -23.523438 13.875 -24.390625 C 13.5 -25.253906 13 -25.929688 12.375 -26.421875 C 11.75 -26.921875 10.960938 -27.179688 10.015625 -27.203125 Z M 10.015625 -27.203125 "/></g></g></g><g fill="#f2e4c5" fill-opacity="1"><g transform="translate(167.049706, 183.59242)"><g><path d="M 0.984375 -4.625 C 0.984375 -5.695312 1.164062 -6.613281 1.53125 -7.375 C 1.894531 -8.144531 2.375 -8.789062 2.96875 -9.3125 C 3.5625 -9.832031 4.21875 -10.265625 4.9375 -10.609375 C 5.65625 -10.953125 6.375 -11.238281 7.09375 -11.46875 C 7.820312 -11.707031 8.484375 -11.921875 9.078125 -12.109375 C 9.671875 -12.296875 10.148438 -12.5 10.515625 -12.71875 C 10.878906 -12.9375 11.0625 -13.203125 11.0625 -13.515625 C 11.0625 -13.835938 10.921875 -14.050781 10.640625 -14.15625 C 10.359375 -14.269531 10.09375 -14.328125 9.84375 -14.328125 C 9.382812 -14.328125 8.984375 -14.210938 8.640625 -13.984375 C 8.304688 -13.765625 7.972656 -13.515625 7.640625 -13.234375 C 7.316406 -12.960938 6.953125 -12.71875 6.546875 -12.5 C 6.140625 -12.28125 5.648438 -12.171875 5.078125 -12.171875 C 4.203125 -12.171875 3.5 -12.441406 2.96875 -12.984375 C 2.4375 -13.535156 2.171875 -14.1875 2.171875 -14.9375 C 2.171875 -15.5 2.316406 -16.066406 2.609375 -16.640625 C 2.898438 -17.222656 3.351562 -17.757812 3.96875 -18.25 C 4.582031 -18.738281 5.367188 -19.132812 6.328125 -19.4375 C 7.285156 -19.738281 8.4375 -19.890625 9.78125 -19.890625 C 11.3125 -19.890625 12.613281 -19.691406 13.6875 -19.296875 C 14.757812 -18.910156 15.640625 -18.398438 16.328125 -17.765625 C 17.023438 -17.128906 17.566406 -16.4375 17.953125 -15.6875 C 18.347656 -14.9375 18.625 -14.203125 18.78125 -13.484375 C 18.9375 -12.773438 19.015625 -12.148438 19.015625 -11.609375 L 19.015625 -4.734375 C 19.015625 -3.828125 19.144531 -3.054688 19.40625 -2.421875 C 19.675781 -1.785156 20.164062 -1.46875 20.875 -1.46875 L 20.875 -1.21875 C 20.21875 -0.84375 19.460938 -0.46875 18.609375 -0.09375 C 17.765625 0.28125 16.765625 0.46875 15.609375 0.46875 C 14.734375 0.46875 14 0.25 13.40625 -0.1875 C 12.820312 -0.632812 12.375 -1.195312 12.0625 -1.875 C 11.757812 -2.550781 11.582031 -3.238281 11.53125 -3.9375 C 11.039062 -2.40625 10.320312 -1.285156 9.375 -0.578125 C 8.4375 0.117188 7.316406 0.46875 6.015625 0.46875 C 5.128906 0.46875 4.300781 0.257812 3.53125 -0.15625 C 2.769531 -0.570312 2.15625 -1.15625 1.6875 -1.90625 C 1.21875 -2.664062 0.984375 -3.570312 0.984375 -4.625 Z M 8.28125 -6.640625 C 8.28125 -6.203125 8.347656 -5.765625 8.484375 -5.328125 C 8.628906 -4.898438 8.84375 -4.546875 9.125 -4.265625 C 9.414062 -3.992188 9.765625 -3.859375 10.171875 -3.859375 C 10.492188 -3.859375 10.796875 -3.960938 11.078125 -4.171875 C 11.367188 -4.390625 11.515625 -4.5625 11.515625 -4.6875 L 11.515625 -14.640625 C 11.515625 -14.984375 11.515625 -15.425781 11.515625 -15.96875 C 11.515625 -16.507812 11.46875 -17.050781 11.375 -17.59375 C 11.28125 -18.132812 11.113281 -18.59375 10.875 -18.96875 C 10.632812 -19.34375 10.269531 -19.53125 9.78125 -19.53125 C 9.4375 -19.53125 9.171875 -19.378906 8.984375 -19.078125 C 8.804688 -18.785156 8.6875 -18.460938 8.625 -18.109375 C 8.5625 -17.765625 8.53125 -17.503906 8.53125 -17.328125 C 8.53125 -16.609375 8.703125 -16.070312 9.046875 -15.71875 C 9.398438 -15.375 9.773438 -15.113281 10.171875 -14.9375 C 10.503906 -14.769531 10.8125 -14.597656 11.09375 -14.421875 C 11.375 -14.253906 11.515625 -13.976562 11.515625 -13.59375 C 11.515625 -13.195312 11.398438 -12.890625 11.171875 -12.671875 C 10.953125 -12.453125 10.679688 -12.226562 10.359375 -12 C 10.046875 -11.769531 9.726562 -11.457031 9.40625 -11.0625 C 9.09375 -10.675781 8.828125 -10.132812 8.609375 -9.4375 C 8.390625 -8.75 8.28125 -7.816406 8.28125 -6.640625 Z M 8.28125 -6.640625 "/></g></g></g><g fill="#f2e4c5" fill-opacity="1"><g transform="translate(188.157348, 183.59242)"><g><path d="M 0.25 -17.796875 C 0.863281 -17.796875 1.566406 -17.863281 2.359375 -18 C 3.148438 -18.132812 3.941406 -18.300781 4.734375 -18.5 C 5.535156 -18.707031 6.28125 -18.925781 6.96875 -19.15625 C 7.664062 -19.382812 8.234375 -19.582031 8.671875 -19.75 C 8.804688 -19.789062 8.90625 -19.835938 8.96875 -19.890625 L 9.21875 -19.890625 L 9.21875 -3.421875 C 9.21875 -2.523438 9.335938 -1.804688 9.578125 -1.265625 C 9.828125 -0.734375 10.234375 -0.394531 10.796875 -0.25 L 10.796875 0 L 0.296875 0 L 0.296875 -0.25 C 0.867188 -0.394531 1.273438 -0.734375 1.515625 -1.265625 C 1.753906 -1.804688 1.875 -2.523438 1.875 -3.421875 L 1.875 -14.328125 C 1.875 -15.085938 1.78125 -15.703125 1.59375 -16.171875 C 1.40625 -16.648438 1.1875 -17 0.9375 -17.21875 C 0.6875 -17.4375 0.457031 -17.546875 0.25 -17.546875 Z M 1.03125 -24.78125 C 1.03125 -25.613281 1.234375 -26.363281 1.640625 -27.03125 C 2.046875 -27.707031 2.585938 -28.25 3.265625 -28.65625 C 3.953125 -29.070312 4.703125 -29.28125 5.515625 -29.28125 C 6.347656 -29.28125 7.109375 -29.070312 7.796875 -28.65625 C 8.484375 -28.25 9.03125 -27.707031 9.4375 -27.03125 C 9.84375 -26.363281 10.046875 -25.613281 10.046875 -24.78125 C 10.046875 -23.945312 9.84375 -23.1875 9.4375 -22.5 C 9.03125 -21.820312 8.484375 -21.28125 7.796875 -20.875 C 7.109375 -20.46875 6.347656 -20.265625 5.515625 -20.265625 C 4.703125 -20.265625 3.953125 -20.46875 3.265625 -20.875 C 2.585938 -21.28125 2.046875 -21.820312 1.640625 -22.5 C 1.234375 -23.1875 1.03125 -23.945312 1.03125 -24.78125 Z M 1.03125 -24.78125 "/></g></g></g><g fill="#f2e4c5" fill-opacity="1"><g transform="translate(199.199776, 183.59242)"><g><path d="M 0.25 -26.21875 C 0.914062 -26.21875 1.664062 -26.289062 2.5 -26.4375 C 3.34375 -26.582031 4.1875 -26.765625 5.03125 -26.984375 C 5.882812 -27.210938 6.660156 -27.441406 7.359375 -27.671875 C 8.054688 -27.910156 8.59375 -28.128906 8.96875 -28.328125 L 9.21875 -28.328125 L 9.21875 -3.421875 C 9.21875 -2.523438 9.335938 -1.804688 9.578125 -1.265625 C 9.828125 -0.734375 10.234375 -0.394531 10.796875 -0.25 L 10.796875 0 L 0.296875 0 L 0.296875 -0.25 C 0.867188 -0.394531 1.273438 -0.734375 1.515625 -1.265625 C 1.753906 -1.804688 1.875 -2.523438 1.875 -3.421875 L 1.875 -22.75 C 1.875 -23.519531 1.78125 -24.140625 1.59375 -24.609375 C 1.40625 -25.078125 1.1875 -25.421875 0.9375 -25.640625 C 0.6875 -25.867188 0.457031 -25.984375 0.25 -25.984375 Z M 0.25 -26.21875 "/></g></g></g><g fill="#f2e4c5" fill-opacity="1"><g transform="translate(210.242204, 183.59242)"><g><path d="M 0 -19.453125 L 13.4375 -19.453125 L 13.4375 -19.15625 C 12.914062 -19.15625 12.503906 -19.003906 12.203125 -18.703125 C 11.898438 -18.398438 11.679688 -18.015625 11.546875 -17.546875 C 11.421875 -17.078125 11.363281 -16.578125 11.375 -16.046875 C 11.394531 -15.523438 11.457031 -15.046875 11.5625 -14.609375 C 11.882812 -13.222656 12.203125 -11.960938 12.515625 -10.828125 C 12.835938 -9.703125 13.148438 -8.65625 13.453125 -7.6875 C 13.765625 -6.71875 14.0625 -5.773438 14.34375 -4.859375 C 14.632812 -3.953125 14.910156 -3.007812 15.171875 -2.03125 C 15.398438 -2.957031 15.644531 -4.019531 15.90625 -5.21875 C 16.164062 -6.414062 16.410156 -7.65625 16.640625 -8.9375 C 16.867188 -10.226562 17.039062 -11.476562 17.15625 -12.6875 C 17.269531 -13.90625 17.289062 -15 17.21875 -15.96875 C 17.144531 -16.9375 16.941406 -17.707031 16.609375 -18.28125 C 16.285156 -18.863281 15.789062 -19.15625 15.125 -19.15625 L 14.5625 -19.15625 L 14.5625 -19.453125 L 23.015625 -19.453125 L 23.015625 -19.203125 C 22.335938 -19.203125 21.789062 -19.066406 21.375 -18.796875 C 20.96875 -18.535156 20.65625 -18.179688 20.4375 -17.734375 C 20.21875 -17.285156 20.019531 -16.789062 19.84375 -16.25 C 19.40625 -14.894531 19.007812 -13.671875 18.65625 -12.578125 C 18.300781 -11.492188 17.972656 -10.46875 17.671875 -9.5 C 17.378906 -8.53125 17.09375 -7.5625 16.8125 -6.59375 C 16.53125 -5.632812 16.238281 -4.617188 15.9375 -3.546875 C 15.644531 -2.484375 15.328125 -1.300781 14.984375 0 C 14.960938 0.0625 14.878906 0.320312 14.734375 0.78125 C 14.585938 1.238281 14.375 1.800781 14.09375 2.46875 C 13.820312 3.132812 13.484375 3.828125 13.078125 4.546875 C 12.679688 5.273438 12.210938 5.960938 11.671875 6.609375 C 11.140625 7.253906 10.539062 7.773438 9.875 8.171875 C 9.207031 8.566406 8.472656 8.765625 7.671875 8.765625 C 7.316406 8.765625 6.898438 8.707031 6.421875 8.59375 C 5.953125 8.488281 5.507812 8.316406 5.09375 8.078125 C 4.675781 7.835938 4.363281 7.53125 4.15625 7.15625 L 4.15625 0.921875 L 4.375 0.921875 C 4.800781 1.578125 5.398438 2.050781 6.171875 2.34375 C 6.941406 2.632812 7.769531 2.78125 8.65625 2.78125 C 9.5 2.78125 10.328125 2.660156 11.140625 2.421875 C 11.953125 2.191406 12.660156 1.867188 13.265625 1.453125 C 13.867188 1.035156 14.273438 0.550781 14.484375 0 L 8.046875 0 C 7.703125 -1.300781 7.378906 -2.484375 7.078125 -3.546875 C 6.773438 -4.617188 6.484375 -5.632812 6.203125 -6.59375 C 5.929688 -7.5625 5.644531 -8.53125 5.34375 -9.5 C 5.039062 -10.46875 4.710938 -11.492188 4.359375 -12.578125 C 4.015625 -13.671875 3.617188 -14.894531 3.171875 -16.25 C 3.015625 -16.789062 2.816406 -17.285156 2.578125 -17.734375 C 2.335938 -18.179688 2.019531 -18.535156 1.625 -18.796875 C 1.226562 -19.066406 0.6875 -19.203125 0 -19.203125 Z M 0 -19.453125 "/></g></g></g><g fill="#f2e4c5" fill-opacity="1"><g transform="translate(142.668422, 214.852211)"><g><path d="M 1.09375 -13.921875 C 1.09375 -16.171875 1.414062 -18.1875 2.0625 -19.96875 C 2.71875 -21.757812 3.613281 -23.273438 4.75 -24.515625 C 5.882812 -25.753906 7.179688 -26.695312 8.640625 -27.34375 C 10.109375 -28 11.664062 -28.328125 13.3125 -28.328125 C 13.988281 -28.335938 14.5625 -28.320312 15.03125 -28.28125 C 15.5 -28.238281 15.945312 -28.1875 16.375 -28.125 C 16.800781 -28.070312 17.253906 -28.019531 17.734375 -27.96875 C 18.210938 -27.925781 18.773438 -27.90625 19.421875 -27.90625 C 19.671875 -27.90625 19.9375 -27.941406 20.21875 -28.015625 C 20.507812 -28.085938 20.71875 -28.207031 20.84375 -28.375 L 21.09375 -28.375 L 21.09375 -19.5 L 20.84375 -19.5 C 20.757812 -20.164062 20.597656 -20.878906 20.359375 -21.640625 C 20.128906 -22.398438 19.828125 -23.144531 19.453125 -23.875 C 19.078125 -24.601562 18.628906 -25.269531 18.109375 -25.875 C 17.597656 -26.476562 17.023438 -26.957031 16.390625 -27.3125 C 15.753906 -27.675781 15.066406 -27.859375 14.328125 -27.859375 C 13.578125 -27.859375 12.914062 -27.601562 12.34375 -27.09375 C 11.769531 -26.59375 11.28125 -25.894531 10.875 -25 C 10.46875 -24.101562 10.132812 -23.0625 9.875 -21.875 C 9.625 -20.695312 9.441406 -19.425781 9.328125 -18.0625 C 9.210938 -16.707031 9.15625 -15.320312 9.15625 -13.90625 C 9.15625 -12.5 9.210938 -11.117188 9.328125 -9.765625 C 9.441406 -8.421875 9.625 -7.15625 9.875 -5.96875 C 10.132812 -4.789062 10.46875 -3.753906 10.875 -2.859375 C 11.28125 -1.960938 11.769531 -1.257812 12.34375 -0.75 C 12.914062 -0.25 13.578125 0 14.328125 0 L 14.328125 -12.296875 C 14.328125 -13.203125 14.203125 -13.921875 13.953125 -14.453125 C 13.710938 -14.984375 13.304688 -15.320312 12.734375 -15.46875 L 12.734375 -15.71875 L 23.734375 -15.71875 L 23.734375 -15.46875 C 23.160156 -15.320312 22.75 -14.984375 22.5 -14.453125 C 22.257812 -13.921875 22.140625 -13.203125 22.140625 -12.296875 L 22.140625 -1.546875 C 22.140625 -1.546875 21.9375 -1.441406 21.53125 -1.234375 C 21.132812 -1.023438 20.554688 -0.789062 19.796875 -0.53125 C 19.046875 -0.269531 18.125 -0.0390625 17.03125 0.15625 C 15.9375 0.363281 14.695312 0.46875 13.3125 0.46875 C 11.664062 0.46875 10.109375 0.144531 8.640625 -0.5 C 7.179688 -1.15625 5.882812 -2.101562 4.75 -3.34375 C 3.613281 -4.582031 2.71875 -6.09375 2.0625 -7.875 C 1.414062 -9.664062 1.09375 -11.679688 1.09375 -13.921875 Z M 1.09375 -13.921875 "/></g></g></g><g fill="#f2e4c5" fill-opacity="1"><g transform="translate(167.000847, 214.852211)"><g><path d="M 0.25 -17.546875 L 0.25 -17.796875 C 0.914062 -17.796875 1.664062 -17.867188 2.5 -18.015625 C 3.34375 -18.160156 4.1875 -18.34375 5.03125 -18.5625 C 5.882812 -18.78125 6.660156 -19.003906 7.359375 -19.234375 C 8.054688 -19.472656 8.59375 -19.691406 8.96875 -19.890625 L 9.21875 -19.890625 L 9.21875 -16.453125 C 9.40625 -16.890625 9.71875 -17.375 10.15625 -17.90625 C 10.601562 -18.445312 11.1875 -18.910156 11.90625 -19.296875 C 12.632812 -19.691406 13.492188 -19.890625 14.484375 -19.890625 C 15.679688 -19.890625 16.664062 -19.632812 17.4375 -19.125 C 18.207031 -18.625 18.785156 -17.984375 19.171875 -17.203125 C 19.554688 -16.421875 19.75 -15.609375 19.75 -14.765625 C 19.75 -13.378906 19.363281 -12.273438 18.59375 -11.453125 C 17.832031 -10.640625 16.820312 -10.234375 15.5625 -10.234375 C 14.320312 -10.234375 13.316406 -10.613281 12.546875 -11.375 C 11.785156 -12.144531 11.40625 -13.148438 11.40625 -14.390625 C 11.40625 -14.878906 11.46875 -15.257812 11.59375 -15.53125 C 11.71875 -15.8125 11.835938 -16.054688 11.953125 -16.265625 C 12.078125 -16.484375 12.140625 -16.738281 12.140625 -17.03125 C 12.140625 -17.394531 11.945312 -17.578125 11.5625 -17.578125 C 11.28125 -17.578125 10.953125 -17.457031 10.578125 -17.21875 C 10.203125 -16.976562 9.878906 -16.640625 9.609375 -16.203125 C 9.347656 -15.765625 9.21875 -15.21875 9.21875 -14.5625 L 9.21875 -3.421875 C 9.21875 -2.523438 9.335938 -1.804688 9.578125 -1.265625 C 9.828125 -0.734375 10.234375 -0.394531 10.796875 -0.25 L 10.796875 0 L 0.296875 0 L 0.296875 -0.25 C 0.867188 -0.394531 1.273438 -0.734375 1.515625 -1.265625 C 1.753906 -1.804688 1.875 -2.523438 1.875 -3.421875 L 1.875 -14.328125 C 1.875 -15.085938 1.78125 -15.703125 1.59375 -16.171875 C 1.40625 -16.648438 1.1875 -17 0.9375 -17.21875 C 0.6875 -17.4375 0.457031 -17.546875 0.25 -17.546875 Z M 0.25 -17.546875 "/></g></g></g><g fill="#f2e4c5" fill-opacity="1"><g transform="translate(186.984701, 214.852211)"><g><path d="M 0.25 -17.796875 C 0.863281 -17.796875 1.566406 -17.863281 2.359375 -18 C 3.148438 -18.132812 3.941406 -18.300781 4.734375 -18.5 C 5.535156 -18.707031 6.28125 -18.925781 6.96875 -19.15625 C 7.664062 -19.382812 8.234375 -19.582031 8.671875 -19.75 C 8.804688 -19.789062 8.90625 -19.835938 8.96875 -19.890625 L 9.21875 -19.890625 L 9.21875 -3.421875 C 9.21875 -2.523438 9.335938 -1.804688 9.578125 -1.265625 C 9.828125 -0.734375 10.234375 -0.394531 10.796875 -0.25 L 10.796875 0 L 0.296875 0 L 0.296875 -0.25 C 0.867188 -0.394531 1.273438 -0.734375 1.515625 -1.265625 C 1.753906 -1.804688 1.875 -2.523438 1.875 -3.421875 L 1.875 -14.328125 C 1.875 -15.085938 1.78125 -15.703125 1.59375 -16.171875 C 1.40625 -16.648438 1.1875 -17 0.9375 -17.21875 C 0.6875 -17.4375 0.457031 -17.546875 0.25 -17.546875 Z M 1.03125 -24.78125 C 1.03125 -25.613281 1.234375 -26.363281 1.640625 -27.03125 C 2.046875 -27.707031 2.585938 -28.25 3.265625 -28.65625 C 3.953125 -29.070312 4.703125 -29.28125 5.515625 -29.28125 C 6.347656 -29.28125 7.109375 -29.070312 7.796875 -28.65625 C 8.484375 -28.25 9.03125 -27.707031 9.4375 -27.03125 C 9.84375 -26.363281 10.046875 -25.613281 10.046875 -24.78125 C 10.046875 -23.945312 9.84375 -23.1875 9.4375 -22.5 C 9.03125 -21.820312 8.484375 -21.28125 7.796875 -20.875 C 7.109375 -20.46875 6.347656 -20.265625 5.515625 -20.265625 C 4.703125 -20.265625 3.953125 -20.46875 3.265625 -20.875 C 2.585938 -21.28125 2.046875 -21.820312 1.640625 -22.5 C 1.234375 -23.1875 1.03125 -23.945312 1.03125 -24.78125 Z M 1.03125 -24.78125 "/></g></g></g><g fill="#f2e4c5" fill-opacity="1"><g transform="translate(198.027129, 214.852211)"><g><path d="M 0.25 -17.796875 C 0.863281 -17.796875 1.566406 -17.863281 2.359375 -18 C 3.148438 -18.132812 3.941406 -18.300781 4.734375 -18.5 C 5.535156 -18.707031 6.28125 -18.925781 6.96875 -19.15625 C 7.664062 -19.382812 8.234375 -19.582031 8.671875 -19.75 C 8.804688 -19.789062 8.90625 -19.835938 8.96875 -19.890625 L 9.21875 -19.890625 L 9.21875 -16.203125 C 9.519531 -16.847656 9.960938 -17.453125 10.546875 -18.015625 C 11.140625 -18.578125 11.832031 -19.03125 12.625 -19.375 C 13.414062 -19.71875 14.273438 -19.890625 15.203125 -19.890625 C 16.453125 -19.890625 17.453125 -19.671875 18.203125 -19.234375 C 18.953125 -18.804688 19.515625 -18.257812 19.890625 -17.59375 C 20.265625 -16.925781 20.515625 -16.21875 20.640625 -15.46875 C 20.773438 -14.71875 20.84375 -14.023438 20.84375 -13.390625 L 20.84375 -3.421875 C 20.84375 -2.523438 20.960938 -1.804688 21.203125 -1.265625 C 21.453125 -0.734375 21.863281 -0.394531 22.4375 -0.25 L 22.4375 0 L 11.921875 0 L 11.921875 -0.25 C 12.492188 -0.394531 12.898438 -0.734375 13.140625 -1.265625 C 13.390625 -1.804688 13.515625 -2.523438 13.515625 -3.421875 L 13.515625 -14.328125 C 13.515625 -14.773438 13.46875 -15.234375 13.375 -15.703125 C 13.289062 -16.179688 13.117188 -16.582031 12.859375 -16.90625 C 12.609375 -17.238281 12.222656 -17.40625 11.703125 -17.40625 C 11.203125 -17.40625 10.765625 -17.253906 10.390625 -16.953125 C 10.015625 -16.648438 9.722656 -16.253906 9.515625 -15.765625 C 9.316406 -15.273438 9.21875 -14.753906 9.21875 -14.203125 L 9.21875 -3.421875 C 9.21875 -2.523438 9.335938 -1.804688 9.578125 -1.265625 C 9.828125 -0.734375 10.234375 -0.394531 10.796875 -0.25 L 10.796875 0 L 0.296875 0 L 0.296875 -0.25 C 0.867188 -0.394531 1.273438 -0.734375 1.515625 -1.265625 C 1.753906 -1.804688 1.875 -2.523438 1.875 -3.421875 L 1.875 -14.328125 C 1.875 -15.085938 1.78125 -15.703125 1.59375 -16.171875 C 1.40625 -16.648438 1.1875 -17 0.9375 -17.21875 C 0.6875 -17.4375 0.457031 -17.546875 0.25 -17.546875 Z M 0.25 -17.796875 "/></g></g></g><g fill="#f2e4c5" fill-opacity="1"><g transform="translate(220.6983, 214.852211)"><g><path d="M 0.984375 -10.234375 C 0.984375 -11.472656 1.140625 -12.664062 1.453125 -13.8125 C 1.773438 -14.96875 2.257812 -16 2.90625 -16.90625 C 3.5625 -17.820312 4.390625 -18.546875 5.390625 -19.078125 C 6.390625 -19.617188 7.570312 -19.890625 8.9375 -19.890625 C 9.945312 -19.890625 10.847656 -19.695312 11.640625 -19.3125 C 12.429688 -18.9375 13.128906 -18.46875 13.734375 -17.90625 L 13.734375 -22.75 C 13.734375 -23.519531 13.640625 -24.140625 13.453125 -24.609375 C 13.265625 -25.078125 13.046875 -25.421875 12.796875 -25.640625 C 12.546875 -25.867188 12.3125 -25.984375 12.09375 -25.984375 L 12.09375 -26.21875 C 12.71875 -26.21875 13.421875 -26.285156 14.203125 -26.421875 C 14.992188 -26.566406 15.789062 -26.738281 16.59375 -26.9375 C 17.394531 -27.144531 18.140625 -27.363281 18.828125 -27.59375 C 19.523438 -27.820312 20.09375 -28.015625 20.53125 -28.171875 C 20.65625 -28.222656 20.753906 -28.273438 20.828125 -28.328125 L 21.0625 -28.328125 L 21.0625 -3.421875 C 21.0625 -2.523438 21.179688 -1.804688 21.421875 -1.265625 C 21.671875 -0.734375 22.082031 -0.394531 22.65625 -0.25 L 22.65625 0 L 13.734375 0 L 13.734375 -3.421875 C 13.117188 -2.328125 12.347656 -1.484375 11.421875 -0.890625 C 10.503906 -0.296875 9.394531 0 8.09375 0 C 6.90625 0 5.859375 -0.265625 4.953125 -0.796875 C 4.054688 -1.335938 3.316406 -2.082031 2.734375 -3.03125 C 2.148438 -3.976562 1.710938 -5.066406 1.421875 -6.296875 C 1.128906 -7.535156 0.984375 -8.847656 0.984375 -10.234375 Z M 11.140625 -18.546875 C 10.523438 -18.546875 10.03125 -18.375 9.65625 -18.03125 C 9.289062 -17.6875 9.015625 -17.226562 8.828125 -16.65625 C 8.640625 -16.09375 8.515625 -15.460938 8.453125 -14.765625 C 8.390625 -14.078125 8.359375 -13.378906 8.359375 -12.671875 C 8.359375 -11.972656 8.359375 -11.328125 8.359375 -10.734375 C 8.359375 -10.128906 8.367188 -9.46875 8.390625 -8.75 C 8.421875 -8.03125 8.484375 -7.3125 8.578125 -6.59375 C 8.671875 -5.875 8.828125 -5.21875 9.046875 -4.625 C 9.273438 -4.03125 9.582031 -3.550781 9.96875 -3.1875 C 10.363281 -2.832031 10.867188 -2.65625 11.484375 -2.65625 C 12.054688 -2.65625 12.5 -2.796875 12.8125 -3.078125 C 13.132812 -3.367188 13.359375 -3.695312 13.484375 -4.0625 C 13.617188 -4.4375 13.703125 -4.726562 13.734375 -4.9375 L 13.734375 -16.78125 C 13.617188 -17.039062 13.429688 -17.304688 13.171875 -17.578125 C 12.910156 -17.847656 12.601562 -18.078125 12.25 -18.265625 C 11.90625 -18.453125 11.535156 -18.546875 11.140625 -18.546875 Z M 11.140625 -18.546875 "/></g></g></g></svg>