<svg xmlns="http://www.w3.org/2000/svg" xmlns:xlink="http://www.w3.org/1999/xlink" width="500" zoomAndPan="magnify" viewBox="0 0 375 374.999991" height="500" preserveAspectRatio="xMidYMid meet" version="1.0"><defs><g/><clipPath id="6a669ff684"><path d="M 89.636719 155.195312 L 116.246094 155.195312 L 116.246094 215.628906 L 89.636719 215.628906 Z M 89.636719 155.195312 " clip-rule="nonzero"/></clipPath><clipPath id="42c0847169"><path d="M 109 156 L 133.886719 156 L 133.886719 215.945312 L 109 215.945312 Z M 109 156 " clip-rule="nonzero"/></clipPath></defs><g clip-path="url(#6a669ff684)"><path fill="#f2e4c5" d="M 113.558594 211.625 C 113.398438 212.691406 113.027344 213.714844 112.488281 214.644531 C 112.484375 214.652344 112.480469 214.65625 112.476562 214.664062 C 112.085938 215.335938 111.371094 215.71875 110.53125 215.613281 C 99.523438 214.207031 89.636719 200.734375 89.636719 184.964844 C 89.636719 168.253906 98.886719 156.011719 112.519531 155.210938 C 113.59375 155.148438 114.652344 155.320312 115.6875 155.53125 C 116.191406 155.632812 116.398438 156.1875 116.070312 156.554688 C 109.027344 164.507812 104.992188 171.554688 105.726562 181.347656 C 105.988281 184.855469 107.238281 189.207031 108.796875 193.359375 C 110.238281 197.265625 114.695312 204.121094 113.558594 211.625 " fill-opacity="1" fill-rule="nonzero"/></g><g clip-path="url(#42c0847169)"><path fill="#f2e4c5" d="M 134.132812 185.476562 C 134.132812 199.816406 127.011719 211.828125 117.441406 214.949219 C 116.210938 215.351562 115.019531 214.246094 115.308594 212.980469 C 115.808594 210.796875 116.125 208.554688 116.046875 206.292969 C 115.632812 194.5 110.207031 190.761719 109.582031 183.011719 C 109.003906 175.800781 109.835938 169.054688 115.5625 160.039062 C 116.1875 159.058594 116.917969 158.148438 117.746094 157.332031 C 118.125 156.75 118.9375 156.550781 119.59375 156.867188 C 128.058594 160.96875 134.132812 172.234375 134.132812 185.476562 " fill-opacity="1" fill-rule="nonzero"/></g><g fill="#f2e4c5" fill-opacity="1"><g transform="translate(142.668422, 183.59242)"><g><path d="M 0.609375 -27.609375 L 0.609375 -27.859375 L 14.71875 -27.859375 C 16.375 -27.859375 17.753906 -27.566406 18.859375 -26.984375 C 19.972656 -26.410156 20.804688 -25.640625 21.359375 -24.671875 C 21.910156 -23.710938 22.1875 -22.65625 22.1875 -21.5 C 22.1875 -20.300781 21.960938 -19.300781 21.515625 -18.5 C 21.066406 -17.695312 20.441406 -17.066406 19.640625 -16.609375 C 18.847656 -16.160156 17.925781 -15.835938 16.875 -15.640625 C 15.820312 -15.441406 14.6875 -15.34375 13.46875 -15.34375 C 14.863281 -15.050781 16.003906 -14.609375 16.890625 -14.015625 C 17.785156 -13.421875 18.5 -12.726562 19.03125 -11.9375 C 19.570312 -11.144531 19.992188 -10.304688 20.296875 -9.421875 C 20.597656 -8.535156 20.84375 -7.644531 21.03125 -6.75 C 21.226562 -5.863281 21.4375 -5.035156 21.65625 -4.265625 C 21.882812 -3.492188 22.1875 -2.820312 22.5625 -2.25 C 22.945312 -1.675781 23.472656 -1.269531 24.140625 -1.03125 C 24.140625 -1.03125 24.085938 -0.957031 23.984375 -0.8125 C 23.878906 -0.664062 23.691406 -0.488281 23.421875 -0.28125 C 23.148438 -0.0703125 22.769531 0.101562 22.28125 0.25 C 21.789062 0.394531 21.164062 0.46875 20.40625 0.46875 C 18.875 0.46875 17.625 0.25 16.65625 -0.1875 C 15.6875 -0.632812 14.9375 -1.226562 14.40625 -1.96875 C 13.875 -2.707031 13.492188 -3.535156 13.265625 -4.453125 C 13.035156 -5.378906 12.890625 -6.335938 12.828125 -7.328125 C 12.765625 -8.328125 12.71875 -9.285156 12.6875 -10.203125 C 12.65625 -11.117188 12.570312 -11.945312 12.4375 -12.6875 C 12.3125 -13.4375 12.0625 -14.03125 11.6875 -14.46875 C 11.320312 -14.90625 10.765625 -15.125 10.015625 -15.125 L 10.015625 -3.421875 C 10.015625 -2.523438 10.132812 -1.804688 10.375 -1.265625 C 10.625 -0.734375 11.035156 -0.394531 11.609375 -0.25 L 11.609375 0 L 0.609375 0 L 0.609375 -0.25 C 1.179688 -0.394531 1.585938 -0.734375 1.828125 -1.265625 C 2.078125 -1.804688 2.203125 -2.523438 2.203125 -3.421875 L 2.203125 -24.4375 C 2.203125 -25.351562 2.078125 -26.070312 1.828125 -26.59375 C 1.585938 -27.125 1.179688 -27.460938 0.609375 -27.609375 Z M 10.515625 -27.546875 L 10.015625 -27.546875 L 10.015625 -15.609375 L 10.90625 -15.609375 C 11.519531 -15.609375 12.09375 -15.796875 12.625 -16.171875 C 13.15625 -16.546875 13.578125 -17.179688 13.890625 -18.078125 C 14.210938 -18.972656 14.375 -20.207031 14.375 -21.78125 C 14.375 -22.769531 14.257812 -23.703125 14.03125 -24.578125 C 13.800781 -25.460938 13.40625 -26.175781 12.84375 -26.71875 C 12.289062 -27.269531 11.515625 -27.546875 10.515625 -27.546875 Z M 10.515625 -27.546875 "/></g></g></g><g fill="#f2e4c5" fill-opacity="1"><g transform="translate(167.049706, 183.59242)"><g><path d="M 10.78125 0.46875 C 9.425781 0.46875 8.15625 0.238281 6.96875 -0.21875 C 5.789062 -0.675781 4.75 -1.335938 3.84375 -2.203125 C 2.945312 -3.078125 2.242188 -4.144531 1.734375 -5.40625 C 1.234375 -6.675781 0.984375 -8.109375 0.984375 -9.703125 C 0.984375 -11.296875 1.238281 -12.722656 1.75 -13.984375 C 2.257812 -15.253906 2.96875 -16.328125 3.875 -17.203125 C 4.78125 -18.085938 5.820312 -18.753906 7 -19.203125 C 8.175781 -19.660156 9.441406 -19.890625 10.796875 -19.890625 C 12.148438 -19.890625 13.414062 -19.660156 14.59375 -19.203125 C 15.78125 -18.753906 16.820312 -18.085938 17.71875 -17.203125 C 18.625 -16.328125 19.328125 -15.253906 19.828125 -13.984375 C 20.335938 -12.722656 20.59375 -11.296875 20.59375 -9.703125 C 20.59375 -8.109375 20.335938 -6.675781 19.828125 -5.40625 C 19.316406 -4.144531 18.609375 -3.078125 17.703125 -2.203125 C 16.796875 -1.335938 15.753906 -0.675781 14.578125 -0.21875 C 13.398438 0.238281 12.132812 0.46875 10.78125 0.46875 Z M 8.921875 -9.71875 C 8.921875 -8.382812 8.921875 -7.128906 8.921875 -5.953125 C 8.929688 -4.785156 8.984375 -3.757812 9.078125 -2.875 C 9.171875 -1.988281 9.347656 -1.296875 9.609375 -0.796875 C 9.878906 -0.296875 10.269531 -0.046875 10.78125 -0.046875 C 11.300781 -0.046875 11.691406 -0.296875 11.953125 -0.796875 C 12.210938 -1.296875 12.382812 -1.988281 12.46875 -2.875 C 12.5625 -3.757812 12.613281 -4.785156 12.625 -5.953125 C 12.632812 -7.128906 12.640625 -8.382812 12.640625 -9.71875 C 12.640625 -11.0625 12.632812 -12.3125 12.625 -13.46875 C 12.613281 -14.632812 12.5625 -15.65625 12.46875 -16.53125 C 12.382812 -17.414062 12.210938 -18.109375 11.953125 -18.609375 C 11.691406 -19.109375 11.300781 -19.359375 10.78125 -19.359375 C 10.269531 -19.359375 9.878906 -19.109375 9.609375 -18.609375 C 9.347656 -18.109375 9.171875 -17.414062 9.078125 -16.53125 C 8.984375 -15.65625 8.929688 -14.632812 8.921875 -13.46875 C 8.921875 -12.3125 8.921875 -11.0625 8.921875 -9.71875 Z M 8.921875 -9.71875 "/></g></g></g><g fill="#f2e4c5" fill-opacity="1"><g transform="translate(188.621522, 183.59242)"><g><path d="M 0.984375 -4.625 C 0.984375 -5.695312 1.164062 -6.613281 1.53125 -7.375 C 1.894531 -8.144531 2.375 -8.789062 2.96875 -9.3125 C 3.5625 -9.832031 4.21875 -10.265625 4.9375 -10.609375 C 5.65625 -10.953125 6.375 -11.238281 7.09375 -11.46875 C 7.820312 -11.707031 8.484375 -11.921875 9.078125 -12.109375 C 9.671875 -12.296875 10.148438 -12.5 10.515625 -12.71875 C 10.878906 -12.9375 11.0625 -13.203125 11.0625 -13.515625 C 11.0625 -13.835938 10.921875 -14.050781 10.640625 -14.15625 C 10.359375 -14.269531 10.09375 -14.328125 9.84375 -14.328125 C 9.382812 -14.328125 8.984375 -14.210938 8.640625 -13.984375 C 8.304688 -13.765625 7.972656 -13.515625 7.640625 -13.234375 C 7.316406 -12.960938 6.953125 -12.71875 6.546875 -12.5 C 6.140625 -12.28125 5.648438 -12.171875 5.078125 -12.171875 C 4.203125 -12.171875 3.5 -12.441406 2.96875 -12.984375 C 2.4375 -13.535156 2.171875 -14.1875 2.171875 -14.9375 C 2.171875 -15.5 2.316406 -16.066406 2.609375 -16.640625 C 2.898438 -17.222656 3.351562 -17.757812 3.96875 -18.25 C 4.582031 -18.738281 5.367188 -19.132812 6.328125 -19.4375 C 7.285156 -19.738281 8.4375 -19.890625 9.78125 -19.890625 C 11.3125 -19.890625 12.613281 -19.691406 13.6875 -19.296875 C 14.757812 -18.910156 15.640625 -18.398438 16.328125 -17.765625 C 17.023438 -17.128906 17.566406 -16.4375 17.953125 -15.6875 C 18.347656 -14.9375 18.625 -14.203125 18.78125 -13.484375 C 18.9375 -12.773438 19.015625 -12.148438 19.015625 -11.609375 L 19.015625 -4.734375 C 19.015625 -3.828125 19.144531 -3.054688 19.40625 -2.421875 C 19.675781 -1.785156 20.164062 -1.46875 20.875 -1.46875 L 20.875 -1.21875 C 20.21875 -0.84375 19.460938 -0.46875 18.609375 -0.09375 C 17.765625 0.28125 16.765625 0.46875 15.609375 0.46875 C 14.734375 0.46875 14 0.25 13.40625 -0.1875 C 12.820312 -0.632812 12.375 -1.195312 12.0625 -1.875 C 11.757812 -2.550781 11.582031 -3.238281 11.53125 -3.9375 C 11.039062 -2.40625 10.320312 -1.285156 9.375 -0.578125 C 8.4375 0.117188 7.316406 0.46875 6.015625 0.46875 C 5.128906 0.46875 4.300781 0.257812 3.53125 -0.15625 C 2.769531 -0.570312 2.15625 -1.15625 1.6875 -1.90625 C 1.21875 -2.664062 0.984375 -3.570312 0.984375 -4.625 Z M 8.28125 -6.640625 C 8.28125 -6.203125 8.347656 -5.765625 8.484375 -5.328125 C 8.628906 -4.898438 8.84375 -4.546875 9.125 -4.265625 C 9.414062 -3.992188 9.765625 -3.859375 10.171875 -3.859375 C 10.492188 -3.859375 10.796875 -3.960938 11.078125 -4.171875 C 11.367188 -4.390625 11.515625 -4.5625 11.515625 -4.6875 L 11.515625 -14.640625 C 11.515625 -14.984375 11.515625 -15.425781 11.515625 -15.96875 C 11.515625 -16.507812 11.46875 -17.050781 11.375 -17.59375 C 11.28125 -18.132812 11.113281 -18.59375 10.875 -18.96875 C 10.632812 -19.34375 10.269531 -19.53125 9.78125 -19.53125 C 9.4375 -19.53125 9.171875 -19.378906 8.984375 -19.078125 C 8.804688 -18.785156 8.6875 -18.460938 8.625 -18.109375 C 8.5625 -17.765625 8.53125 -17.503906 8.53125 -17.328125 C 8.53125 -16.609375 8.703125 -16.070312 9.046875 -15.71875 C 9.398438 -15.375 9.773438 -15.113281 10.171875 -14.9375 C 10.503906 -14.769531 10.8125 -14.597656 11.09375 -14.421875 C 11.375 -14.253906 11.515625 -13.976562 11.515625 -13.59375 C 11.515625 -13.195312 11.398438 -12.890625 11.171875 -12.671875 C 10.953125 -12.453125 10.679688 -12.226562 10.359375 -12 C 10.046875 -11.769531 9.726562 -11.457031 9.40625 -11.0625 C 9.09375 -10.675781 8.828125 -10.132812 8.609375 -9.4375 C 8.390625 -8.75 8.28125 -7.816406 8.28125 -6.640625 Z M 8.28125 -6.640625 "/></g></g></g><g fill="#f2e4c5" fill-opacity="1"><g transform="translate(209.729164, 183.59242)"><g><path d="M 12.09375 -1.875 C 12.09375 -2.59375 11.894531 -3.210938 11.5 -3.734375 C 11.101562 -4.253906 10.570312 -4.722656 9.90625 -5.140625 C 9.25 -5.554688 8.523438 -5.957031 7.734375 -6.34375 C 6.941406 -6.738281 6.144531 -7.15625 5.34375 -7.59375 C 4.550781 -8.039062 3.820312 -8.546875 3.15625 -9.109375 C 2.5 -9.671875 1.972656 -10.34375 1.578125 -11.125 C 1.179688 -11.90625 0.984375 -12.832031 0.984375 -13.90625 C 0.984375 -15.238281 1.347656 -16.34375 2.078125 -17.21875 C 2.804688 -18.101562 3.769531 -18.769531 4.96875 -19.21875 C 6.164062 -19.664062 7.472656 -19.890625 8.890625 -19.890625 C 10.160156 -19.890625 11.257812 -19.816406 12.1875 -19.671875 C 13.125 -19.523438 13.941406 -19.453125 14.640625 -19.453125 C 15.023438 -19.453125 15.398438 -19.476562 15.765625 -19.53125 C 16.140625 -19.59375 16.429688 -19.710938 16.640625 -19.890625 L 16.890625 -19.890625 L 16.890625 -12.53125 L 16.640625 -12.53125 C 16.410156 -13.269531 16.085938 -14.03125 15.671875 -14.8125 C 15.253906 -15.601562 14.765625 -16.34375 14.203125 -17.03125 C 13.648438 -17.71875 13.050781 -18.273438 12.40625 -18.703125 C 11.757812 -19.140625 11.085938 -19.359375 10.390625 -19.359375 C 9.703125 -19.359375 9.097656 -19.160156 8.578125 -18.765625 C 8.066406 -18.378906 7.8125 -17.832031 7.8125 -17.125 C 7.8125 -16.445312 7.992188 -15.851562 8.359375 -15.34375 C 8.734375 -14.84375 9.222656 -14.390625 9.828125 -13.984375 C 10.429688 -13.578125 11.09375 -13.1875 11.8125 -12.8125 C 12.539062 -12.4375 13.265625 -12.039062 13.984375 -11.625 C 14.710938 -11.207031 15.378906 -10.726562 15.984375 -10.1875 C 16.585938 -9.65625 17.070312 -9.019531 17.4375 -8.28125 C 17.800781 -7.550781 17.984375 -6.6875 17.984375 -5.6875 C 17.984375 -4.695312 17.75 -3.816406 17.28125 -3.046875 C 16.820312 -2.285156 16.203125 -1.644531 15.421875 -1.125 C 14.640625 -0.601562 13.765625 -0.207031 12.796875 0.0625 C 11.835938 0.332031 10.867188 0.46875 9.890625 0.46875 C 8.753906 0.46875 7.707031 0.410156 6.75 0.296875 C 5.800781 0.179688 4.882812 -0.0351562 4 -0.359375 C 3.125 -0.691406 2.222656 -1.175781 1.296875 -1.8125 L 1.296875 -7.578125 L 1.546875 -7.578125 C 1.992188 -6.660156 2.523438 -5.753906 3.140625 -4.859375 C 3.753906 -3.960938 4.421875 -3.148438 5.140625 -2.421875 C 5.867188 -1.703125 6.632812 -1.125 7.4375 -0.6875 C 8.25 -0.25 9.078125 -0.03125 9.921875 -0.03125 C 10.535156 -0.03125 11.050781 -0.175781 11.46875 -0.46875 C 11.882812 -0.769531 12.09375 -1.238281 12.09375 -1.875 Z M 12.09375 -1.875 "/></g></g></g><g fill="#f2e4c5" fill-opacity="1"><g transform="translate(228.686953, 183.59242)"><g><path d="M 1.640625 -18.984375 L 0 -18.984375 L 0 -19.453125 C 0.613281 -19.453125 1.320312 -19.546875 2.125 -19.734375 C 2.9375 -19.921875 3.757812 -20.175781 4.59375 -20.5 C 5.425781 -20.820312 6.203125 -21.1875 6.921875 -21.59375 C 7.648438 -22.007812 8.25 -22.4375 8.71875 -22.875 L 8.96875 -22.875 L 8.96875 -19.453125 L 11.359375 -19.453125 L 11.359375 -18.984375 L 8.96875 -18.984375 L 8.96875 -8.921875 C 8.96875 -7.335938 9.03125 -6.035156 9.15625 -5.015625 C 9.289062 -4.003906 9.539062 -3.253906 9.90625 -2.765625 C 10.269531 -2.285156 10.796875 -2.046875 11.484375 -2.046875 C 11.484375 -1.410156 11.164062 -0.828125 10.53125 -0.296875 C 9.894531 0.222656 8.988281 0.484375 7.8125 0.484375 C 6.46875 0.484375 5.382812 0.21875 4.5625 -0.3125 C 3.75 -0.851562 3.128906 -1.578125 2.703125 -2.484375 C 2.285156 -3.398438 2.003906 -4.414062 1.859375 -5.53125 C 1.710938 -6.644531 1.640625 -7.773438 1.640625 -8.921875 Z M 1.640625 -18.984375 "/></g></g></g><g fill="#f2e4c5" fill-opacity="1"><g transform="translate(142.668422, 214.852211)"><g><path d="M 0.609375 -27.609375 L 0.609375 -27.859375 L 14.71875 -27.859375 C 16.375 -27.859375 17.753906 -27.566406 18.859375 -26.984375 C 19.972656 -26.410156 20.804688 -25.640625 21.359375 -24.671875 C 21.910156 -23.710938 22.1875 -22.65625 22.1875 -21.5 C 22.1875 -20.300781 21.960938 -19.300781 21.515625 -18.5 C 21.066406 -17.695312 20.441406 -17.066406 19.640625 -16.609375 C 18.847656 -16.160156 17.925781 -15.835938 16.875 -15.640625 C 15.820312 -15.441406 14.6875 -15.34375 13.46875 -15.34375 C 14.863281 -15.050781 16.003906 -14.609375 16.890625 -14.015625 C 17.785156 -13.421875 18.5 -12.726562 19.03125 -11.9375 C 19.570312 -11.144531 19.992188 -10.304688 20.296875 -9.421875 C 20.597656 -8.535156 20.84375 -7.644531 21.03125 -6.75 C 21.226562 -5.863281 21.4375 -5.035156 21.65625 -4.265625 C 21.882812 -3.492188 22.1875 -2.820312 22.5625 -2.25 C 22.945312 -1.675781 23.472656 -1.269531 24.140625 -1.03125 C 24.140625 -1.03125 24.085938 -0.957031 23.984375 -0.8125 C 23.878906 -0.664062 23.691406 -0.488281 23.421875 -0.28125 C 23.148438 -0.0703125 22.769531 0.101562 22.28125 0.25 C 21.789062 0.394531 21.164062 0.46875 20.40625 0.46875 C 18.875 0.46875 17.625 0.25 16.65625 -0.1875 C 15.6875 -0.632812 14.9375 -1.226562 14.40625 -1.96875 C 13.875 -2.707031 13.492188 -3.535156 13.265625 -4.453125 C 13.035156 -5.378906 12.890625 -6.335938 12.828125 -7.328125 C 12.765625 -8.328125 12.71875 -9.285156 12.6875 -10.203125 C 12.65625 -11.117188 12.570312 -11.945312 12.4375 -12.6875 C 12.3125 -13.4375 12.0625 -14.03125 11.6875 -14.46875 C 11.320312 -14.90625 10.765625 -15.125 10.015625 -15.125 L 10.015625 -3.421875 C 10.015625 -2.523438 10.132812 -1.804688 10.375 -1.265625 C 10.625 -0.734375 11.035156 -0.394531 11.609375 -0.25 L 11.609375 0 L 0.609375 0 L 0.609375 -0.25 C 1.179688 -0.394531 1.585938 -0.734375 1.828125 -1.265625 C 2.078125 -1.804688 2.203125 -2.523438 2.203125 -3.421875 L 2.203125 -24.4375 C 2.203125 -25.351562 2.078125 -26.070312 1.828125 -26.59375 C 1.585938 -27.125 1.179688 -27.460938 0.609375 -27.609375 Z M 10.515625 -27.546875 L 10.015625 -27.546875 L 10.015625 -15.609375 L 10.90625 -15.609375 C 11.519531 -15.609375 12.09375 -15.796875 12.625 -16.171875 C 13.15625 -16.546875 13.578125 -17.179688 13.890625 -18.078125 C 14.210938 -18.972656 14.375 -20.207031 14.375 -21.78125 C 14.375 -22.769531 14.257812 -23.703125 14.03125 -24.578125 C 13.800781 -25.460938 13.40625 -26.175781 12.84375 -26.71875 C 12.289062 -27.269531 11.515625 -27.546875 10.515625 -27.546875 Z M 10.515625 -27.546875 "/></g></g></g><g fill="#f2e4c5" fill-opacity="1"><g transform="translate(167.049706, 214.852211)"><g><path d="M 11.171875 0.46875 C 9.753906 0.46875 8.429688 0.203125 7.203125 -0.328125 C 5.972656 -0.859375 4.890625 -1.585938 3.953125 -2.515625 C 3.023438 -3.441406 2.296875 -4.519531 1.765625 -5.75 C 1.242188 -6.976562 0.984375 -8.296875 0.984375 -9.703125 C 0.984375 -11.097656 1.21875 -12.410156 1.6875 -13.640625 C 2.15625 -14.878906 2.820312 -15.960938 3.6875 -16.890625 C 4.550781 -17.816406 5.570312 -18.546875 6.75 -19.078125 C 7.9375 -19.609375 9.238281 -19.875 10.65625 -19.875 C 12.507812 -19.875 14.078125 -19.585938 15.359375 -19.015625 C 16.648438 -18.441406 17.632812 -17.675781 18.3125 -16.71875 C 18.988281 -15.769531 19.328125 -14.71875 19.328125 -13.5625 C 19.328125 -11.945312 18.664062 -10.722656 17.34375 -9.890625 C 16.03125 -9.066406 13.898438 -8.65625 10.953125 -8.65625 L 8.75 -8.65625 C 9.507812 -7.445312 10.503906 -6.523438 11.734375 -5.890625 C 12.972656 -5.253906 14.363281 -4.9375 15.90625 -4.9375 C 16.457031 -4.9375 16.984375 -4.988281 17.484375 -5.09375 C 17.992188 -5.195312 18.503906 -5.359375 19.015625 -5.578125 C 19.015625 -4.722656 18.796875 -3.929688 18.359375 -3.203125 C 17.929688 -2.472656 17.347656 -1.828125 16.609375 -1.265625 C 15.867188 -0.710938 15.03125 -0.285156 14.09375 0.015625 C 13.15625 0.316406 12.179688 0.46875 11.171875 0.46875 Z M 8.484375 -9.109375 L 8.625 -9.109375 C 9.4375 -9.109375 10.117188 -9.269531 10.671875 -9.59375 C 11.234375 -9.925781 11.679688 -10.363281 12.015625 -10.90625 C 12.359375 -11.457031 12.601562 -12.054688 12.75 -12.703125 C 12.894531 -13.359375 12.96875 -14.003906 12.96875 -14.640625 C 12.96875 -15.160156 12.914062 -15.691406 12.8125 -16.234375 C 12.707031 -16.785156 12.539062 -17.289062 12.3125 -17.75 C 12.082031 -18.21875 11.789062 -18.597656 11.4375 -18.890625 C 11.09375 -19.179688 10.6875 -19.328125 10.21875 -19.328125 C 9.664062 -19.328125 9.195312 -19.164062 8.8125 -18.84375 C 8.425781 -18.53125 8.117188 -18.117188 7.890625 -17.609375 C 7.660156 -17.109375 7.5 -16.582031 7.40625 -16.03125 C 7.3125 -15.488281 7.265625 -14.984375 7.265625 -14.515625 C 7.265625 -13.441406 7.367188 -12.453125 7.578125 -11.546875 C 7.785156 -10.640625 8.085938 -9.828125 8.484375 -9.109375 Z M 8.484375 -9.109375 "/></g></g></g><g fill="#f2e4c5" fill-opacity="1"><g transform="translate(186.618252, 214.852211)"><g><path d="M 1.875 -14.296875 C 1.875 -15.054688 1.78125 -15.671875 1.59375 -16.140625 C 1.40625 -16.617188 1.1875 -16.96875 0.9375 -17.1875 C 0.6875 -17.40625 0.457031 -17.515625 0.25 -17.515625 L 0.25 -17.765625 C 0.914062 -17.765625 1.664062 -17.835938 2.5 -17.984375 C 3.34375 -18.128906 4.1875 -18.3125 5.03125 -18.53125 C 5.882812 -18.75 6.660156 -18.976562 7.359375 -19.21875 C 8.054688 -19.457031 8.59375 -19.675781 8.96875 -19.875 L 9.21875 -19.875 L 9.21875 -15.953125 C 9.394531 -16.585938 9.742188 -17.207031 10.265625 -17.8125 C 10.796875 -18.414062 11.429688 -18.910156 12.171875 -19.296875 C 12.921875 -19.679688 13.691406 -19.875 14.484375 -19.875 C 15.628906 -19.875 16.613281 -19.664062 17.4375 -19.25 C 18.257812 -18.832031 18.941406 -18.285156 19.484375 -17.609375 C 20.035156 -16.929688 20.472656 -16.1875 20.796875 -15.375 C 21.117188 -14.570312 21.347656 -13.765625 21.484375 -12.953125 C 21.628906 -12.148438 21.703125 -11.425781 21.703125 -10.78125 C 21.703125 -9.25 21.472656 -7.828125 21.015625 -6.515625 C 20.554688 -5.203125 19.90625 -4.054688 19.0625 -3.078125 C 18.21875 -2.097656 17.191406 -1.332031 15.984375 -0.78125 C 14.773438 -0.238281 13.421875 0.03125 11.921875 0.03125 L 9.21875 0.03125 L 9.21875 5.375 C 9.21875 6.269531 9.335938 6.984375 9.578125 7.515625 C 9.828125 8.054688 10.234375 8.398438 10.796875 8.546875 L 10.796875 8.796875 L 0.296875 8.796875 L 0.296875 8.546875 C 0.867188 8.398438 1.273438 8.054688 1.515625 7.515625 C 1.753906 6.984375 1.875 6.269531 1.875 5.375 Z M 9.21875 -13.78125 L 9.21875 -0.484375 C 10.269531 -0.535156 11.132812 -0.835938 11.8125 -1.390625 C 12.488281 -1.941406 13.019531 -2.679688 13.40625 -3.609375 C 13.789062 -4.546875 14.054688 -5.59375 14.203125 -6.75 C 14.359375 -7.914062 14.4375 -9.132812 14.4375 -10.40625 C 14.4375 -11.09375 14.367188 -11.789062 14.234375 -12.5 C 14.097656 -13.207031 13.894531 -13.859375 13.625 -14.453125 C 13.351562 -15.046875 13.007812 -15.519531 12.59375 -15.875 C 12.175781 -16.238281 11.703125 -16.421875 11.171875 -16.421875 C 10.597656 -16.421875 10.171875 -16.296875 9.890625 -16.046875 C 9.617188 -15.796875 9.4375 -15.46875 9.34375 -15.0625 C 9.257812 -14.664062 9.21875 -14.238281 9.21875 -13.78125 Z M 9.21875 -13.78125 "/></g></g></g><g fill="#f2e4c5" fill-opacity="1"><g transform="translate(209.289423, 214.852211)"><g><path d="M 0.25 -17.515625 L 0.25 -17.765625 C 0.863281 -17.765625 1.566406 -17.820312 2.359375 -17.9375 C 3.148438 -18.0625 3.945312 -18.222656 4.75 -18.421875 C 5.5625 -18.617188 6.3125 -18.832031 7 -19.0625 C 7.695312 -19.289062 8.253906 -19.507812 8.671875 -19.71875 C 8.722656 -19.75 8.773438 -19.773438 8.828125 -19.796875 C 8.890625 -19.828125 8.9375 -19.851562 8.96875 -19.875 L 9.21875 -19.875 L 9.21875 -5.109375 C 9.21875 -4.671875 9.257812 -4.207031 9.34375 -3.71875 C 9.4375 -3.238281 9.613281 -2.835938 9.875 -2.515625 C 10.132812 -2.191406 10.515625 -2.03125 11.015625 -2.03125 C 11.535156 -2.03125 11.976562 -2.179688 12.34375 -2.484375 C 12.71875 -2.785156 13.003906 -3.179688 13.203125 -3.671875 C 13.410156 -4.160156 13.515625 -4.679688 13.515625 -5.234375 L 13.515625 -14.296875 C 13.515625 -15.054688 13.421875 -15.671875 13.234375 -16.140625 C 13.046875 -16.617188 12.820312 -16.96875 12.5625 -17.1875 C 12.3125 -17.40625 12.082031 -17.515625 11.875 -17.515625 L 11.875 -17.765625 C 12.5 -17.765625 13.203125 -17.820312 13.984375 -17.9375 C 14.773438 -18.0625 15.570312 -18.222656 16.375 -18.421875 C 17.1875 -18.617188 17.9375 -18.832031 18.625 -19.0625 C 19.320312 -19.289062 19.882812 -19.507812 20.3125 -19.71875 C 20.351562 -19.75 20.398438 -19.773438 20.453125 -19.796875 C 20.515625 -19.828125 20.5625 -19.851562 20.59375 -19.875 L 20.84375 -19.875 L 20.84375 -5.109375 C 20.84375 -4.335938 20.9375 -3.71875 21.125 -3.25 C 21.3125 -2.78125 21.535156 -2.429688 21.796875 -2.203125 C 22.054688 -1.984375 22.285156 -1.875 22.484375 -1.875 L 22.484375 -1.640625 C 21.859375 -1.640625 21.148438 -1.566406 20.359375 -1.421875 C 19.578125 -1.285156 18.785156 -1.113281 17.984375 -0.90625 C 17.179688 -0.707031 16.4375 -0.5 15.75 -0.28125 C 15.0625 -0.0625 14.492188 0.132812 14.046875 0.3125 C 13.929688 0.363281 13.835938 0.414062 13.765625 0.46875 L 13.515625 0.46875 L 13.515625 -3.21875 C 13.203125 -2.570312 12.753906 -1.96875 12.171875 -1.40625 C 11.585938 -0.84375 10.898438 -0.390625 10.109375 -0.046875 C 9.316406 0.296875 8.457031 0.46875 7.53125 0.46875 C 6.289062 0.46875 5.289062 0.253906 4.53125 -0.171875 C 3.769531 -0.609375 3.203125 -1.160156 2.828125 -1.828125 C 2.453125 -2.492188 2.195312 -3.203125 2.0625 -3.953125 C 1.9375 -4.703125 1.875 -5.394531 1.875 -6.03125 L 1.875 -14.296875 C 1.875 -15.054688 1.78125 -15.671875 1.59375 -16.140625 C 1.40625 -16.617188 1.1875 -16.96875 0.9375 -17.1875 C 0.6875 -17.40625 0.457031 -17.515625 0.25 -17.515625 Z M 0.25 -17.515625 "/></g></g></g><g fill="#f2e4c5" fill-opacity="1"><g transform="translate(232.009453, 214.852211)"><g><path d="M 1.875 -22.75 C 1.875 -23.519531 1.78125 -24.140625 1.59375 -24.609375 C 1.40625 -25.078125 1.1875 -25.421875 0.9375 -25.640625 C 0.6875 -25.867188 0.457031 -25.984375 0.25 -25.984375 L 0.25 -26.21875 C 0.914062 -26.21875 1.664062 -26.289062 2.5 -26.4375 C 3.34375 -26.582031 4.1875 -26.765625 5.03125 -26.984375 C 5.882812 -27.210938 6.660156 -27.441406 7.359375 -27.671875 C 8.054688 -27.910156 8.59375 -28.128906 8.96875 -28.328125 L 9.21875 -28.328125 L 9.21875 -15.984375 C 9.394531 -16.617188 9.742188 -17.238281 10.265625 -17.84375 C 10.796875 -18.445312 11.429688 -18.9375 12.171875 -19.3125 C 12.921875 -19.695312 13.691406 -19.890625 14.484375 -19.890625 C 15.628906 -19.890625 16.613281 -19.679688 17.4375 -19.265625 C 18.257812 -18.847656 18.941406 -18.300781 19.484375 -17.625 C 20.035156 -16.957031 20.472656 -16.21875 20.796875 -15.40625 C 21.117188 -14.601562 21.347656 -13.796875 21.484375 -12.984375 C 21.628906 -12.179688 21.703125 -11.453125 21.703125 -10.796875 C 21.703125 -9.265625 21.472656 -7.84375 21.015625 -6.53125 C 20.554688 -5.21875 19.90625 -4.070312 19.0625 -3.09375 C 18.21875 -2.125 17.191406 -1.363281 15.984375 -0.8125 C 14.773438 -0.269531 13.421875 0 11.921875 0 L 0.296875 0 L 0.296875 -0.25 C 0.867188 -0.394531 1.273438 -0.734375 1.515625 -1.265625 C 1.753906 -1.804688 1.875 -2.523438 1.875 -3.421875 Z M 9.21875 -13.8125 L 9.21875 -0.484375 C 10.269531 -0.554688 11.132812 -0.867188 11.8125 -1.421875 C 12.488281 -1.972656 13.019531 -2.707031 13.40625 -3.625 C 13.789062 -4.550781 14.054688 -5.597656 14.203125 -6.765625 C 14.359375 -7.941406 14.4375 -9.164062 14.4375 -10.4375 C 14.4375 -11.125 14.367188 -11.820312 14.234375 -12.53125 C 14.097656 -13.238281 13.894531 -13.890625 13.625 -14.484375 C 13.351562 -15.078125 13.007812 -15.550781 12.59375 -15.90625 C 12.175781 -16.269531 11.703125 -16.453125 11.171875 -16.453125 C 10.617188 -16.453125 10.195312 -16.316406 9.90625 -16.046875 C 9.625 -15.773438 9.4375 -15.4375 9.34375 -15.03125 C 9.257812 -14.632812 9.21875 -14.226562 9.21875 -13.8125 Z M 9.21875 -13.8125 "/></g></g></g><g fill="#f2e4c5" fill-opacity="1"><g transform="translate(254.680624, 214.852211)"><g><path d="M 0.25 -26.21875 C 0.914062 -26.21875 1.664062 -26.289062 2.5 -26.4375 C 3.34375 -26.582031 4.1875 -26.765625 5.03125 -26.984375 C 5.882812 -27.210938 6.660156 -27.441406 7.359375 -27.671875 C 8.054688 -27.910156 8.59375 -28.128906 8.96875 -28.328125 L 9.21875 -28.328125 L 9.21875 -3.421875 C 9.21875 -2.523438 9.335938 -1.804688 9.578125 -1.265625 C 9.828125 -0.734375 10.234375 -0.394531 10.796875 -0.25 L 10.796875 0 L 0.296875 0 L 0.296875 -0.25 C 0.867188 -0.394531 1.273438 -0.734375 1.515625 -1.265625 C 1.753906 -1.804688 1.875 -2.523438 1.875 -3.421875 L 1.875 -22.75 C 1.875 -23.519531 1.78125 -24.140625 1.59375 -24.609375 C 1.40625 -25.078125 1.1875 -25.421875 0.9375 -25.640625 C 0.6875 -25.867188 0.457031 -25.984375 0.25 -25.984375 Z M 0.25 -26.21875 "/></g></g></g><g fill="#f2e4c5" fill-opacity="1"><g transform="translate(265.723052, 214.852211)"><g><path d="M 0.25 -17.796875 C 0.863281 -17.796875 1.566406 -17.863281 2.359375 -18 C 3.148438 -18.132812 3.941406 -18.300781 4.734375 -18.5 C 5.535156 -18.707031 6.28125 -18.925781 6.96875 -19.15625 C 7.664062 -19.382812 8.234375 -19.582031 8.671875 -19.75 C 8.804688 -19.789062 8.90625 -19.835938 8.96875 -19.890625 L 9.21875 -19.890625 L 9.21875 -3.421875 C 9.21875 -2.523438 9.335938 -1.804688 9.578125 -1.265625 C 9.828125 -0.734375 10.234375 -0.394531 10.796875 -0.25 L 10.796875 0 L 0.296875 0 L 0.296875 -0.25 C 0.867188 -0.394531 1.273438 -0.734375 1.515625 -1.265625 C 1.753906 -1.804688 1.875 -2.523438 1.875 -3.421875 L 1.875 -14.328125 C 1.875 -15.085938 1.78125 -15.703125 1.59375 -16.171875 C 1.40625 -16.648438 1.1875 -17 0.9375 -17.21875 C 0.6875 -17.4375 0.457031 -17.546875 0.25 -17.546875 Z M 1.03125 -24.78125 C 1.03125 -25.613281 1.234375 -26.363281 1.640625 -27.03125 C 2.046875 -27.707031 2.585938 -28.25 3.265625 -28.65625 C 3.953125 -29.070312 4.703125 -29.28125 5.515625 -29.28125 C 6.347656 -29.28125 7.109375 -29.070312 7.796875 -28.65625 C 8.484375 -28.25 9.03125 -27.707031 9.4375 -27.03125 C 9.84375 -26.363281 10.046875 -25.613281 10.046875 -24.78125 C 10.046875 -23.945312 9.84375 -23.1875 9.4375 -22.5 C 9.03125 -21.820312 8.484375 -21.28125 7.796875 -20.875 C 7.109375 -20.46875 6.347656 -20.265625 5.515625 -20.265625 C 4.703125 -20.265625 3.953125 -20.46875 3.265625 -20.875 C 2.585938 -21.28125 2.046875 -21.820312 1.640625 -22.5 C 1.234375 -23.1875 1.03125 -23.945312 1.03125 -24.78125 Z M 1.03125 -24.78125 "/></g></g></g><g fill="#f2e4c5" fill-opacity="1"><g transform="translate(276.76548, 214.852211)"><g><path d="M 0.984375 -9.703125 C 0.984375 -11.097656 1.21875 -12.410156 1.6875 -13.640625 C 2.15625 -14.878906 2.820312 -15.960938 3.6875 -16.890625 C 4.550781 -17.828125 5.570312 -18.5625 6.75 -19.09375 C 7.9375 -19.625 9.238281 -19.890625 10.65625 -19.890625 C 11.644531 -19.890625 12.613281 -19.765625 13.5625 -19.515625 C 14.519531 -19.265625 15.378906 -18.878906 16.140625 -18.359375 C 16.910156 -17.847656 17.519531 -17.207031 17.96875 -16.4375 C 18.414062 -15.675781 18.640625 -14.789062 18.640625 -13.78125 C 18.640625 -12.820312 18.421875 -11.988281 17.984375 -11.28125 C 17.554688 -10.570312 16.972656 -10.03125 16.234375 -9.65625 C 15.492188 -9.28125 14.648438 -9.09375 13.703125 -9.09375 C 12.765625 -9.09375 11.957031 -9.28125 11.28125 -9.65625 C 10.601562 -10.03125 10.082031 -10.546875 9.71875 -11.203125 C 9.363281 -11.859375 9.1875 -12.597656 9.1875 -13.421875 C 9.1875 -14.003906 9.25 -14.503906 9.375 -14.921875 C 9.507812 -15.335938 9.664062 -15.710938 9.84375 -16.046875 C 10.019531 -16.378906 10.175781 -16.703125 10.3125 -17.015625 C 10.445312 -17.335938 10.515625 -17.6875 10.515625 -18.0625 C 10.515625 -18.414062 10.4375 -18.71875 10.28125 -18.96875 C 10.132812 -19.226562 9.882812 -19.359375 9.53125 -19.359375 C 9.125 -19.359375 8.773438 -19.191406 8.484375 -18.859375 C 8.203125 -18.535156 7.972656 -18.117188 7.796875 -17.609375 C 7.617188 -17.109375 7.484375 -16.582031 7.390625 -16.03125 C 7.304688 -15.476562 7.265625 -14.960938 7.265625 -14.484375 C 7.265625 -12.453125 7.632812 -10.722656 8.375 -9.296875 C 9.113281 -7.867188 10.132812 -6.785156 11.4375 -6.046875 C 12.738281 -5.304688 14.226562 -4.9375 15.90625 -4.9375 C 16.457031 -4.9375 16.984375 -4.988281 17.484375 -5.09375 C 17.992188 -5.195312 18.503906 -5.359375 19.015625 -5.578125 C 19.015625 -4.722656 18.796875 -3.929688 18.359375 -3.203125 C 17.929688 -2.472656 17.347656 -1.828125 16.609375 -1.265625 C 15.867188 -0.710938 15.03125 -0.285156 14.09375 0.015625 C 13.15625 0.316406 12.179688 0.46875 11.171875 0.46875 C 9.753906 0.46875 8.429688 0.203125 7.203125 -0.328125 C 5.972656 -0.859375 4.890625 -1.585938 3.953125 -2.515625 C 3.023438 -3.441406 2.296875 -4.519531 1.765625 -5.75 C 1.242188 -6.976562 0.984375 -8.296875 0.984375 -9.703125 Z M 0.984375 -9.703125 "/></g></g></g></svg>